<svg width="196" height="50" viewBox="0 0 196 50" fill="none" xmlns="http://www.w3.org/2000/svg">
<g clip-path="url(#clip0_17888_2732)">
<path fill-rule="evenodd" clip-rule="evenodd" d="M18.4695 36.7804C24.7322 36.7804 30.358 33.6354 33.8077 28.2516C34.7631 27.0256 34.1262 25.4264 32.8524 24.7868C31.9502 23.8273 30.0395 24.1471 29.4026 25.4264C26.9613 29.2111 22.8215 31.3966 18.4695 31.3966C11.3046 31.3966 5.36041 25.7463 5.36041 18.4968C5.36041 11.3006 11.3046 5.38379 18.4695 5.38379C23.14 5.38379 27.2797 7.83582 29.7211 11.9403C30.358 13.2196 31.9502 13.5394 33.1709 12.8998C34.4446 12.3134 35.0284 10.7143 34.1262 9.11514C30.9418 3.41151 25.0506 0 18.4695 0C8.43867 0 0 8.15565 0 18.4968C0 28.5714 8.43867 36.7804 18.4695 36.7804ZM50.3666 10.5011C42.9894 10.5011 37.1514 16.3646 37.1514 23.8273C37.1514 31.2367 42.9894 36.7804 50.3666 36.7804C53.3387 36.7804 55.8332 36.0341 58.1153 34.1684C58.1153 35.7143 59.6014 36.7804 60.6098 36.7804C62.1489 36.7804 63.2104 35.661 63.2104 34.1684V23.8273C63.2635 16.4179 57.7438 10.5011 50.3666 10.5011ZM50.3666 31.6098C45.9615 31.6098 42.2464 28.2516 42.2464 23.8273C42.2464 19.403 45.9615 15.6716 50.3666 15.6716C54.7717 15.6716 58.1153 19.403 58.1153 23.8273C58.1153 28.2516 54.7717 31.6098 50.3666 31.6098ZM79.5039 10.3412C72.2859 10.3412 66.3948 16.2047 66.3948 23.5608V34.1684C66.3948 35.661 67.5624 36.7804 68.9423 36.7804C70.4284 36.7804 71.5429 35.6077 71.5429 34.1684V23.5608C71.5429 19.1365 75.0988 15.565 79.5039 15.565C83.909 15.565 87.4649 19.1365 87.4649 23.5608V34.1684C87.4649 35.661 88.6325 36.7804 90.0124 36.7804C91.4985 36.7804 92.613 35.6077 92.613 34.1684V23.5608C92.6661 16.258 86.7219 10.3412 79.5039 10.3412Z" fill="#FCC008"/>
<path fill-rule="evenodd" clip-rule="evenodd" d="M166.226 10.4478C159.008 10.4478 153.117 16.3113 153.117 23.6141V34.1684C153.117 35.6077 154.284 36.7804 155.717 36.7804C157.15 36.7804 158.265 35.5544 158.265 34.1684V23.6141C158.265 19.2431 161.821 15.6716 166.226 15.6716C167.712 15.6716 168.826 14.4456 168.826 13.0597C168.879 11.6205 167.712 10.4478 166.226 10.4478ZM136.876 31.5565C132.471 31.5565 128.915 27.9318 128.915 23.5608C128.915 19.1365 132.471 15.565 136.876 15.565C141.228 15.565 144.837 19.1365 144.837 23.5608C144.837 27.9318 141.228 31.5565 136.876 31.5565ZM150.038 23.5608C150.038 16.258 144.147 10.3412 136.929 10.3412C129.658 10.3412 123.82 16.2047 123.82 23.5608C123.82 30.8635 129.658 36.7804 136.929 36.7804C139.901 36.7804 142.608 35.7143 144.89 34.0618C144.89 36.8337 144.89 36.887 144.89 36.9403C144.784 41.258 141.281 44.7761 136.929 44.7761C133.851 44.7761 131.144 43.0171 129.764 40.2452C129.127 38.9659 127.588 38.4328 126.314 39.0725C124.988 39.7122 124.51 41.2047 125.094 42.5373C127.323 47.1215 131.834 49.9467 136.929 49.9467C144.147 49.9467 150.038 44.0299 150.038 36.7804C150.038 23.5608 150.038 23.5608 150.038 23.5608ZM104.873 24.1471L109.596 10.7143L114.214 24.1471H104.873ZM122.652 33.2623L112.038 1.97228C111.719 0.959488 110.817 0.106609 109.596 0.106609C108.27 0.106609 107.367 1.01279 107.049 1.97228L95.8504 33.2623C95.5319 34.5416 96.1688 36.0341 97.7079 36.7271C97.9733 36.7271 97.9733 36.7271 98.2917 36.7271C99.5655 36.7271 100.521 36.0341 100.786 34.8614L102.962 29.4776H115.7L117.557 34.8614C118.194 36.4606 119.786 36.9936 121.007 36.7271C122.652 36.0341 123.236 34.5416 122.652 33.2623Z" fill="#07695A"/>
<path fill-rule="evenodd" clip-rule="evenodd" d="M158.053 45.2026V45.629H153.913C153.966 46.1087 154.072 46.4286 154.285 46.6418C154.497 46.8017 154.868 46.9083 155.399 46.9083C155.877 46.9083 156.195 46.855 156.354 46.7484C156.514 46.6418 156.62 46.4819 156.62 46.1621H157.947C157.947 46.8017 157.734 47.2282 157.31 47.4947C156.885 47.7612 156.301 47.9211 155.452 47.9211H155.24C154.285 47.9211 153.595 47.7079 153.17 47.2815C152.746 46.855 152.533 46.2154 152.533 45.2559V45.0427C152.533 44.1365 152.746 43.4435 153.17 43.0171C153.595 42.5906 154.285 42.3774 155.187 42.3774H155.399C156.301 42.3774 156.938 42.5906 157.363 43.0171C157.841 43.5501 158.053 44.2431 158.053 45.2026ZM155.346 43.5501C154.868 43.5501 154.497 43.6567 154.285 43.8166C154.072 43.9766 153.966 44.2964 153.913 44.7228H156.673C156.62 44.2964 156.514 43.9766 156.354 43.8166C156.142 43.6034 155.824 43.5501 155.346 43.5501ZM164.422 47.8678H162.776L161.45 46.0554L160.123 47.8678H158.477L160.6 45.2026L158.531 42.5373H160.176L161.45 44.2431L162.723 42.5373H164.316L162.246 45.096L164.422 47.8678ZM168.084 42.484C168.986 42.484 169.676 42.6972 170.101 43.1237C170.525 43.5501 170.737 44.1898 170.737 45.1493V45.3092C170.737 46.2154 170.525 46.9083 170.154 47.2815C169.729 47.7079 169.092 47.9211 168.19 47.9211H168.084C167.447 47.9211 166.916 47.8145 166.545 47.548V49.9467H165.165V44.9893C165.165 44.0832 165.377 43.4435 165.802 43.0704C166.226 42.6439 166.916 42.484 167.818 42.484H168.084ZM167.978 46.7484C168.508 46.7484 168.88 46.6418 169.039 46.4286C169.198 46.2154 169.304 45.7889 169.304 45.2026C169.304 44.6162 169.198 44.1898 169.039 43.9766C168.827 43.7633 168.508 43.6567 167.924 43.6567C167.394 43.6567 167.022 43.7633 166.81 43.9766C166.598 44.1898 166.492 44.6162 166.492 45.2026C166.492 45.7889 166.598 46.2154 166.81 46.4286C167.075 46.6418 167.447 46.7484 167.978 46.7484ZM174.453 42.484H174.665C175.567 42.484 176.257 42.6972 176.682 43.1237C177.106 43.5501 177.318 44.1898 177.318 45.1493V45.3092C177.318 46.2154 177.106 46.9083 176.682 47.3348C176.257 47.7612 175.567 47.9744 174.665 47.9744H174.453C173.55 47.9744 172.86 47.7612 172.436 47.3348C172.011 46.9083 171.799 46.2687 171.799 45.3092V45.096C171.799 44.1898 172.011 43.4968 172.436 43.0704C172.86 42.6972 173.497 42.484 174.453 42.484ZM175.673 43.9766C175.461 43.7633 175.089 43.6567 174.559 43.6567C174.028 43.6567 173.656 43.7633 173.444 43.9766C173.232 44.1898 173.126 44.6162 173.126 45.2026C173.126 45.7889 173.232 46.2154 173.444 46.4286C173.656 46.6418 174.028 46.7484 174.559 46.7484C175.089 46.7484 175.461 46.6418 175.673 46.4286C175.885 46.2154 175.992 45.7889 175.992 45.2026C175.939 44.6162 175.885 44.1898 175.673 43.9766ZM180.874 42.484H181.087C181.883 42.484 182.467 42.6439 182.785 42.9638C183.103 43.2836 183.263 43.8166 183.263 44.5629H181.936C181.936 44.1898 181.883 43.9766 181.724 43.8699C181.617 43.7633 181.352 43.71 180.981 43.71C180.556 43.71 180.238 43.8166 180.078 43.9766C179.919 44.1365 179.866 44.5096 179.866 44.9893V47.9211H178.486V44.7228C178.486 43.9232 178.645 43.3369 179.017 43.0171C179.388 42.6439 180.025 42.484 180.874 42.484ZM188.835 45.8422C188.888 46.0021 188.888 46.1621 188.888 46.3753C188.888 47.4414 188.305 47.9744 187.084 47.9744H186.872C186.129 47.9744 185.651 47.8145 185.333 47.548C185.067 47.2281 184.908 46.7484 184.908 46.0021V43.71H183.793V42.5373H184.961V41.258H186.288V42.5373H188.729V43.71H186.288V45.8422C186.288 46.2154 186.341 46.4286 186.447 46.5352C186.553 46.6418 186.712 46.6951 186.978 46.6951C187.19 46.6951 187.349 46.6418 187.456 46.5352C187.562 46.4286 187.562 46.2687 187.562 46.1087C187.562 46.0021 187.562 45.8955 187.562 45.8422H188.835ZM192.232 42.484H192.444C193.347 42.484 193.984 42.5906 194.302 42.8572C194.62 43.1237 194.833 43.5501 194.833 44.1898H193.506C193.506 43.9232 193.4 43.7633 193.241 43.6567C193.081 43.5501 192.763 43.5501 192.285 43.5501C191.808 43.5501 191.489 43.6034 191.33 43.6567C191.171 43.71 191.118 43.8699 191.118 44.0832C191.118 44.2964 191.224 44.4563 191.383 44.5629C191.542 44.6162 191.967 44.6695 192.604 44.6695C193.506 44.6695 194.143 44.7761 194.461 44.9893C194.78 45.2026 194.939 45.629 194.939 46.2154V46.4286C194.939 47.0149 194.727 47.3881 194.355 47.6013C193.984 47.8145 193.294 47.9211 192.391 47.9211H192.179C191.277 47.9211 190.64 47.8145 190.268 47.548C189.95 47.2815 189.738 46.855 189.738 46.2154H191.064C191.064 46.4819 191.171 46.6418 191.33 46.7484C191.489 46.855 191.808 46.855 192.285 46.855C192.816 46.855 193.134 46.8017 193.294 46.7484C193.453 46.6951 193.559 46.5352 193.559 46.322C193.559 46.1087 193.453 45.9488 193.294 45.8422C193.134 45.7889 192.71 45.7356 192.073 45.7356C191.171 45.7356 190.587 45.629 190.268 45.4158C189.95 45.2026 189.791 44.8294 189.791 44.1898V43.9766C189.791 43.3902 190.003 43.0171 190.375 42.8038C190.693 42.5906 191.33 42.484 192.232 42.484Z" fill="#07695A"/>
<path fill-rule="evenodd" clip-rule="evenodd" d="M180.768 10.5011C180.556 10.5011 179.866 10.5544 179.76 10.6077C179.282 9.64819 178.911 9.96802 177.849 9.91471C177.053 9.86141 176.788 10.7143 176.788 11.4073C176.523 11.5672 176.098 11.7271 175.779 11.887C175.726 11.7804 175.726 11.7804 175.673 11.7271C175.09 11.2473 174.771 11.4606 173.816 11.7804C172.967 12.0469 173.073 12.8465 173.232 13.5394L172.489 14.2324C171.852 14.0725 172.011 13.6994 170.791 14.5522C170.313 14.9254 170.101 14.9254 170.101 15.6716C170.101 16.0448 170.366 16.4179 170.525 16.6844L170.472 16.7377C170.472 16.791 170.472 16.791 170.419 16.791C170.26 17.0576 170.101 17.3241 169.941 17.5906C169.092 17.5373 169.145 17.5373 168.615 18.2836C168.137 18.8699 167.765 19.2431 168.349 20.0426C168.508 20.2026 168.668 20.4158 168.88 20.5224C168.827 20.629 168.668 21.3753 168.668 21.5352C167.765 21.5352 167.765 22.1748 167.5 22.8145C167.447 22.9744 167.341 23.2942 167.341 23.5075C167.341 23.9339 167.818 24.307 168.084 24.467C168.402 24.6269 168.508 24.5203 168.508 24.8934C168.508 25.1599 168.562 25.3731 168.562 25.693C168.296 25.7463 167.978 26.0661 167.925 26.3326C167.872 26.7058 167.925 27.2921 167.872 27.6119C167.765 28.3582 168.827 28.678 169.411 28.678C169.464 28.9979 169.676 29.371 169.835 29.6375C169.676 29.7441 169.358 30.064 169.358 30.3838C169.358 30.7036 169.623 31.3966 169.729 31.7164C169.835 32.1962 170.313 32.3561 170.791 32.3561C171.056 32.3561 171.321 32.2495 171.534 32.1962C171.693 32.4094 171.905 32.5693 172.011 32.7825C172.064 32.8891 172.117 32.8891 172.17 32.9957C171.746 33.8486 172.117 34.0085 172.542 34.6482C172.648 34.8081 172.754 34.968 172.86 35.1279C172.967 35.2345 173.02 35.2345 173.126 35.2878C173.444 35.3945 173.816 35.3411 174.081 35.2345C174.187 35.1812 174.24 35.1812 174.347 35.0746C174.718 34.8614 174.612 34.968 175.036 35.1812C175.196 35.2878 175.355 35.3412 175.514 35.4478C175.461 36.3006 175.461 36.2473 176.151 36.7804C176.469 36.9936 176.735 37.3667 177.159 37.3667C177.637 37.3667 178.168 36.887 178.38 36.5672C178.752 36.5672 179.07 36.7271 179.442 36.7271C179.442 37.2601 179.654 37.5266 180.132 37.6866C180.875 37.9531 181.564 38.3795 182.148 37.6333C182.308 37.42 182.467 37.1535 182.52 36.887C182.838 36.887 183.263 36.7804 183.581 36.7804C183.634 37.0469 183.953 37.42 184.218 37.4733L185.492 37.5267C186.235 37.5267 186.553 36.7804 186.553 35.9808C186.713 35.9808 187.349 35.661 187.456 35.6077C187.562 35.7143 187.615 35.7676 187.774 35.8742C188.305 36.194 188.782 35.9275 189.525 35.661C190.003 35.5011 190.215 35.1279 190.215 34.6482C190.215 34.3284 190.109 34.1151 190.056 33.8486C190.322 33.6887 190.587 33.3156 190.852 33.1556C191.702 33.5821 191.861 33.2623 192.763 32.6226C192.816 32.5693 192.922 32.516 192.975 32.4627C193.612 31.823 192.816 30.7569 192.763 30.7036C192.869 30.5437 193.241 29.9574 193.241 29.7974C194.249 30.0107 194.355 29.4243 194.886 28.7846C195.098 28.5181 195.151 28.4115 195.151 28.0384C195.151 27.7719 194.992 27.5053 194.886 27.3454C194.78 27.1855 194.567 27.0256 194.408 26.8657C194.408 26.7058 194.461 26.4925 194.514 26.3326C194.567 26.1194 194.567 26.0128 194.567 25.7996C195.523 25.5864 195.417 25.533 195.788 24.467C195.947 23.9339 196.054 23.7207 195.682 23.2409C195.47 22.9744 195.204 22.8678 194.886 22.7612C194.727 22.7079 194.78 22.7079 194.727 22.4947C194.674 22.2281 194.621 21.9616 194.621 21.6951C195.47 21.2687 195.31 21.0021 195.31 19.6162C195.31 19.2964 195.045 19.0299 194.833 18.9232C194.514 18.7633 194.302 18.71 193.824 18.71C193.771 18.5501 193.718 18.3902 193.612 18.2303C193.506 18.0704 193.453 17.9104 193.4 17.7505C193.771 17.2175 193.984 17.3241 193.665 16.258C193.559 15.8849 193.506 15.4051 193.188 15.1919C192.604 14.7655 191.967 15.0853 191.702 15.0853C191.648 15.0853 191.118 14.4456 191.012 14.339C191.436 13.4861 191.118 13.2729 190.534 12.42C190.269 12.0469 190.109 11.9403 189.579 11.9403C189.207 11.9403 188.942 12.1002 188.676 12.3134L188.623 12.3667C188.358 12.1535 188.039 11.9936 187.721 11.8337C187.774 11.7271 187.774 11.5672 187.774 11.4606C187.774 10.9275 187.403 10.7676 187.084 10.5544C186.819 10.3412 186.447 9.96802 186.076 9.96802C185.545 9.96802 185.014 10.4478 184.855 10.7676C184.537 10.7143 184.165 10.5544 183.847 10.5544C183.794 9.70149 183.263 9.59488 182.573 9.38166C181.936 9.16844 181.671 9.06183 181.14 9.59488C180.928 9.96802 180.875 10.2345 180.768 10.5011ZM181.724 31.9296C180.503 31.9296 179.282 31.6098 178.433 31.2367C177.902 31.0235 177.584 30.8635 177.159 30.5437C176.735 30.2772 176.363 29.9574 176.045 29.6375C174.665 28.1983 173.55 26.226 173.55 24.0938C173.55 22.6013 173.657 21.5352 174.293 20.2026C175.196 18.3902 176.363 17.2175 178.168 16.3113C181.034 14.8721 184.59 15.4584 187.084 17.5373C189.632 19.6695 190.693 23.774 189.154 27.0789C188.782 27.9318 187.986 29.1578 187.243 29.7441C186.341 30.4904 186.5 30.4904 185.12 31.1834C184.696 31.3966 184.112 31.5565 183.634 31.7164C183.104 31.7697 182.254 31.9296 181.724 31.9296Z" fill="#07695A"/>
</g>
<defs>
<clipPath id="clip0_17888_2732">
<rect width="196" height="50" fill="white"/>
</clipPath>
</defs>
</svg>
