<svg width="270" height="270" viewBox="0 0 270 270" fill="none" xmlns="http://www.w3.org/2000/svg">
<path fill-rule="evenodd" clip-rule="evenodd" d="M126.794 12.1133C124.789 12.1133 118.274 12.6123 117.272 13.1113C112.761 4.13 109.253 7.12376 99.2298 6.6248C91.7124 6.12584 89.2066 14.1092 89.2066 20.5956C86.7008 22.0925 82.6915 23.5894 79.6846 25.0863C79.1834 24.0883 79.1833 24.0883 78.6822 23.5894C73.1694 19.0988 70.1625 21.0946 61.1416 24.0883C53.123 26.5831 54.1253 34.0675 55.6288 40.554L48.6126 47.0404C42.5987 45.5435 44.1021 42.0508 32.5754 50.0342C28.065 53.5269 26.0604 53.5269 26.0604 60.5123C26.0604 64.005 28.5661 67.4977 30.0696 69.9925L29.5686 70.4915C29.5686 70.9904 29.5685 70.9904 29.0674 70.9904C27.5639 73.4852 26.0604 75.98 24.557 78.4748C16.5384 77.9758 17.0396 77.9758 12.028 84.9613C7.51752 90.4498 4.0094 93.9425 9.52216 101.427C11.0256 102.924 12.5291 104.92 14.5338 105.918C14.0326 106.915 12.529 113.901 12.529 115.398C4.00928 115.398 4.00937 121.385 1.50357 127.373C1.00241 128.87 0 131.863 0 133.859C0 137.851 4.51056 141.344 7.01636 142.84C10.0233 144.337 11.0256 143.339 11.0256 146.832C11.0256 149.327 11.5268 151.323 11.5268 154.316C9.02097 154.815 6.01395 157.809 5.51279 160.304C5.01163 163.797 5.51276 169.285 5.0116 172.279C4.00928 179.264 14.0326 182.258 19.5454 182.258C20.0465 185.252 22.0511 188.745 23.5546 191.239C22.0511 192.237 19.0442 195.231 19.0442 198.225C19.0442 201.219 21.5499 207.705 22.5522 210.699C23.5545 215.189 28.065 216.686 32.5754 216.686C35.0812 216.686 37.5871 215.688 39.5918 215.189C41.0952 217.185 43.0998 218.682 44.1022 220.678C44.6033 221.676 45.1044 221.676 45.6056 222.674C41.5963 230.657 45.1045 232.154 49.1138 238.141C50.1161 239.638 51.1184 241.135 52.1208 242.632C53.1231 243.63 53.6242 243.63 54.6266 244.129C57.6335 245.127 61.1416 244.628 63.6474 243.63C64.6497 243.131 65.1509 243.131 66.1532 242.133C69.6613 240.137 68.6589 241.135 72.6682 243.131C74.1717 244.129 75.6753 244.628 77.1788 245.626C76.6776 253.609 76.6775 253.11 83.1926 258.1C86.1995 260.096 88.7053 263.588 92.7146 263.588C97.225 263.588 102.237 259.098 104.241 256.104C107.749 256.104 110.756 257.601 114.265 257.601C114.265 262.59 116.269 265.085 120.78 266.582C127.796 269.077 134.311 273.069 139.824 266.083C141.327 264.087 142.831 261.592 143.332 259.098C146.339 259.098 150.348 258.1 153.355 258.1C153.856 260.595 156.863 264.087 159.369 264.586L171.397 265.085C178.413 265.085 181.42 258.1 181.42 250.615C182.923 250.615 188.937 247.622 189.94 247.123C190.942 248.121 191.443 248.62 192.947 249.618C197.958 252.611 202.469 250.116 209.485 247.622C213.995 246.125 216 242.632 216 238.141C216 235.148 214.998 233.152 214.497 230.657C217.002 229.16 219.508 225.667 222.014 224.171C230.033 228.162 231.536 225.169 240.056 219.181C240.557 218.682 241.559 218.183 242.06 217.684C248.074 211.697 240.557 201.717 240.056 201.219C241.058 199.722 244.566 194.233 244.566 192.736C254.088 194.732 255.091 189.244 260.102 183.256C262.107 180.761 262.608 179.763 262.608 176.271C262.608 173.776 261.104 171.281 260.102 169.784C259.1 168.287 257.095 166.79 255.592 165.294C255.592 163.797 256.093 161.801 256.594 160.304C257.095 158.308 257.095 157.31 257.095 155.314C266.116 153.319 265.114 152.82 268.622 142.84C270.125 137.851 271.128 135.855 267.62 131.364C265.615 128.87 263.109 127.872 260.102 126.874C258.599 126.375 259.1 126.375 258.599 124.379C258.097 121.884 257.596 119.389 257.596 116.895C265.615 112.903 264.111 110.408 264.111 97.4352C264.111 94.4415 261.606 91.9467 259.601 90.9488C256.594 89.4519 254.589 88.9529 250.079 88.9529C249.578 87.456 249.076 85.9592 248.074 84.4623C247.072 82.9654 246.571 81.4685 246.07 79.9717C249.578 74.9821 251.582 75.98 248.575 66.0008C247.573 62.5081 247.072 58.0175 244.065 56.0217C238.552 52.03 232.538 55.0238 230.033 55.0238C229.531 55.0238 224.52 49.0363 223.517 48.0383C227.527 40.055 224.52 38.0592 219.007 30.0758C216.501 26.5831 214.998 25.5852 209.986 25.5852C206.478 25.5852 203.972 27.0821 201.466 29.0779L200.965 29.5769C198.459 27.5811 195.452 26.0842 192.446 24.5873C192.947 23.5894 192.947 22.0925 192.947 21.0946C192.947 16.105 189.439 14.6081 186.432 12.6123C183.926 10.6165 180.418 7.12376 176.91 7.12376C171.898 7.12376 166.886 11.6144 165.383 14.6081C162.376 14.1092 158.868 12.6123 155.861 12.6123C155.36 4.62896 150.348 3.63105 143.833 1.63522C137.819 -0.360617 135.313 -1.35854 130.302 3.63105C128.297 7.12376 127.796 9.61855 126.794 12.1133ZM135.814 212.695C124.288 212.695 112.761 209.701 104.743 206.208C99.7309 204.212 96.7239 202.715 92.7146 199.722C88.7053 197.227 85.1973 194.233 82.1904 191.239C69.1602 177.767 58.6358 159.306 58.6358 139.348C58.6358 125.377 59.6381 115.398 65.652 102.924C74.1717 85.9592 85.1973 74.9821 102.237 66.4998C129.299 53.0279 162.877 58.5165 186.432 77.9758C210.487 97.9342 220.51 136.354 205.977 167.289C202.469 175.273 194.951 186.749 187.935 192.237C179.415 199.223 180.919 199.223 167.889 205.709C163.879 207.705 158.367 209.202 153.856 210.699C148.845 211.198 140.826 212.695 135.814 212.695Z" fill="#EBF2F1"/>
</svg>
